<svg width="475" height="502" viewBox="0 0 475 502" fill="none" xmlns="http://www.w3.org/2000/svg">
<path d="M0 119C0 53.2781 53.2781 0 119 0H356C421.722 0 475 53.2781 475 119V383C475 448.722 421.722 502 356 502H119C53.2781 502 0 448.722 0 383V119Z" fill="url(#paint0_linear)"/>
<g clip-path="url(#clip0)">
<path d="M329.604 175.196H145.396C133.275 175.236 123.452 185.596 123.389 198.406V299.66C123.438 301.6 124.928 303.154 126.765 303.177H141.721C143.016 316.594 153.71 326.8 166.472 326.8C179.234 326.8 189.927 316.594 191.224 303.177H286.105C287.404 316.594 298.096 326.799 310.857 326.799C323.618 326.799 334.311 316.594 335.61 303.177H348.235C350.07 303.154 351.562 301.602 351.611 299.662V198.406C351.548 185.596 341.725 175.236 329.604 175.196ZM345.091 198.406V245.093H302.59C299.639 245.087 296.812 243.838 294.736 241.621C292.66 239.404 291.505 236.404 291.528 233.285V182.087H329.604C338.126 182.124 345.032 189.401 345.091 198.406ZM243.089 228.357V202.269H285.008V228.357H243.089ZM148.074 228.357V202.269H185.335V228.357H148.074ZM191.855 202.269H236.568V228.357H191.855V202.269ZM166.472 319.838C156.332 319.838 148.112 311.151 148.112 300.435C148.112 289.719 156.332 281.032 166.472 281.032C176.611 281.032 184.831 289.719 184.831 300.435C184.818 311.145 176.605 319.825 166.472 319.838ZM310.857 319.838C300.718 319.838 292.498 311.151 292.498 300.435C292.498 289.719 300.718 281.032 310.857 281.032C320.997 281.032 329.217 289.719 329.217 300.435C329.204 311.145 320.991 319.825 310.857 319.838ZM335.413 296.286C333.456 283.559 323.058 274.21 310.857 274.21C298.658 274.21 288.259 283.559 286.303 296.286H191.026C189.068 283.561 178.67 274.214 166.472 274.214C154.273 274.214 143.875 283.561 141.917 296.286H129.909V198.406C129.968 189.401 136.874 182.124 145.396 182.087H285.008V195.377H144.903C143.103 195.377 141.553 196.718 141.553 198.621V232.049C141.553 233.953 143.103 235.249 144.903 235.249H285.018C286.056 244.601 293.539 251.985 302.59 251.985H345.091V296.286H335.413Z" fill="white" stroke="white" stroke-width="2" stroke-linecap="round" stroke-linejoin="round"/>
</g>
<defs>
<linearGradient id="paint0_linear" x1="828.003" y1="655.443" x2="6.40912" y2="383.729" gradientUnits="userSpaceOnUse">
<stop stop-color="#C76CF2"/>
<stop offset="1" stop-color="#640093"/>
</linearGradient>
<clipPath id="clip0">
<rect width="228.223" height="241.195" fill="white" transform="translate(123.389 130.402)"/>
</clipPath>
</defs>
</svg>
